<?xml version="1.0" ?><svg version="1.1" viewBox="8.96533012390137 0.373337000608444 69.0425662994385 84.7609632313252" xmlns="http://www.w3.org/2000/svg" xmlns:xlink="http://www.w3.org/1999/xlink"><defs><radialGradient cx="0.553786" cy="0.446175" id="def0" r="0.645801"><stop offset="0" stop-color="#4CFF2D"/><stop offset="0.343302" stop-color="#3CF830"/><stop offset="0.587875" stop-color="#2DF233"/><stop offset="1" stop-color="#2BC900"/></radialGradient><linearGradient gradientTransform="rotate(-57.7646 -0.0507818 1.32457)" id="def1" x1="-0.0507818" x2="1.19646" y1="1.32457" y2="1.32457"><stop offset="0" stop-color="#FFFFFF"/><stop offset="0.13" stop-color="#FFFFFF" style="stop-opacity:0.552941176470588"/><stop offset="1" stop-color="#FFFFFF" style="stop-opacity:0.101960784313725"/></linearGradient><linearGradient gradientTransform="rotate(117.26 0.880728 -0.238706)" id="def2" x1="0.880728" x2="3.50195" y1="-0.238706" y2="-0.238706"><stop offset="0" stop-color="#FFFFFF"/><stop offset="0.13" stop-color="#FFFFFF" style="stop-opacity:0.552941176470588"/><stop offset="1" stop-color="#FFFFFF" style="stop-opacity:0.101960784313725"/></linearGradient><radialGradient cx="0.553783" cy="0.446208" id="def3" r="0.645705"><stop offset="0" stop-color="#4CFF2D"/><stop offset="0.343302" stop-color="#3CF830"/><stop offset="0.587875" stop-color="#2DF233"/><stop offset="1" stop-color="#2BC900"/></radialGradient><linearGradient gradientTransform="rotate(-57.7803 -0.0502193 1.3248)" id="def4" x1="-0.0502193" x2="1.19666" y1="1.3248" y2="1.3248"><stop offset="0" stop-color="#FFFFFF"/><stop offset="0.13" stop-color="#FFFFFF" style="stop-opacity:0.552941176470588"/><stop offset="1" stop-color="#FFFFFF" style="stop-opacity:0.101960784313725"/></linearGradient><linearGradient gradientTransform="rotate(117.265 0.880632 -0.238639)" id="def5" x1="0.880632" x2="3.50198" y1="-0.238639" y2="-0.238639"><stop offset="0" stop-color="#FFFFFF"/><stop offset="0.13" stop-color="#FFFFFF" style="stop-opacity:0.552941176470588"/><stop offset="1" stop-color="#FFFFFF" style="stop-opacity:0.101960784313725"/></linearGradient><radialGradient cx="0.553857" cy="0.446203" id="def6" r="0.645819"><stop offset="0" stop-color="#4CFF2D"/><stop offset="0.343302" stop-color="#3CF830"/><stop offset="0.587875" stop-color="#2DF233"/><stop offset="1" stop-color="#2BC900"/></radialGradient><linearGradient gradientTransform="rotate(-57.7636 -0.050725 1.32457)" id="def7" x1="-0.050725" x2="1.19637" y1="1.32457" y2="1.32457"><stop offset="0" stop-color="#FFFFFF"/><stop offset="0.13" stop-color="#FFFFFF" style="stop-opacity:0.552941176470588"/><stop offset="1" stop-color="#FFFFFF" style="stop-opacity:0.101960784313725"/></linearGradient><linearGradient gradientTransform="rotate(117.264 0.880427 -0.238673)" id="def8" x1="0.880427" x2="3.50148" y1="-0.238673" y2="-0.238673"><stop offset="0" stop-color="#FFFFFF"/><stop offset="0.13" stop-color="#FFFFFF" style="stop-opacity:0.552941176470588"/><stop offset="1" stop-color="#FFFFFF" style="stop-opacity:0.101960784313725"/></linearGradient><radialGradient cx="0.55375" cy="0.446262" id="def9" r="0.645816"><stop offset="0" stop-color="#4CFF2D"/><stop offset="0.343302" stop-color="#3CF830"/><stop offset="0.587875" stop-color="#2DF233"/><stop offset="1" stop-color="#2BC900"/></radialGradient><linearGradient gradientTransform="rotate(-57.7682 -0.0506681 1.32477)" id="def10" x1="-0.0506681" x2="1.19627" y1="1.32477" y2="1.32477"><stop offset="0" stop-color="#FFFFFF"/><stop offset="0.13" stop-color="#FFFFFF" style="stop-opacity:0.552941176470588"/><stop offset="1" stop-color="#FFFFFF" style="stop-opacity:0.101960784313725"/></linearGradient><linearGradient gradientTransform="rotate(117.245 0.880277 -0.238834)" id="def11" x1="0.880277" x2="3.5004" y1="-0.238834" y2="-0.238834"><stop offset="0" stop-color="#FFFFFF"/><stop offset="0.13" stop-color="#FFFFFF" style="stop-opacity:0.552941176470588"/><stop offset="1" stop-color="#FFFFFF" style="stop-opacity:0.101960784313725"/></linearGradient></defs><g><path d="M16.9616,30.2089L15.4869,27.5249 30.7483,19.1823 32.2176,21.8729 16.9616,30.2089z" fill="#37B72C"/><path d="M34.5788,21.3216L35.4015,18.3776 52.1548,23.0683 51.3228,26.0123 34.5788,21.3216z" fill="#37B72C"/><path d="M55.5976,25.7832L53.3563,23.7019 69.4323,6.39787 71.6629,8.47787 55.5976,25.7832z" fill="#37B72C"/><g><path d="M21.5533,82.4609C21.5533,83.9369,20.1,85.1343,18.304,85.1343L12.2133,85.1343C10.4187,85.1343,8.96533,83.9369,8.96533,82.4609L8.96533,48.2449C8.96533,46.7796,10.4187,45.5889,12.2133,45.5889L18.304,45.5889C20.1,45.5889,21.5533,46.7796,21.5533,48.2449L21.5533,82.4609z" fill="#37B72C"/><path d="M40.6549,81.8099C40.6549,83.6459,39.2523,85.1339,37.5189,85.1339L31.6349,85.1339C29.9016,85.1339,28.4989,83.6459,28.4989,81.8099L28.4989,39.2832C28.4989,37.4525,29.9016,35.9712,31.6349,35.9712L37.5189,35.9712C39.2523,35.9712,40.6549,37.4525,40.6549,39.2832L40.6549,81.8099z" fill="#37B72C"/><path d="M59.5443,82.1967C59.5443,83.818,58.1043,85.134,56.3469,85.134L50.3656,85.134C48.5949,85.134,47.1696,83.818,47.1696,82.1967L47.1696,44.61C47.1696,42.9927,48.5949,41.682,50.3656,41.682L56.3469,41.682C58.1043,41.682,59.5443,42.9927,59.5443,44.61L59.5443,82.1967z" fill="#37B72C"/><path d="M77.9544,81.0156C77.9544,83.2823,76.5091,85.1343,74.7104,85.1343L68.6144,85.1343C66.8251,85.1343,65.3704,83.2823,65.3704,81.0156L65.3704,28.1543C65.3704,25.8769,66.8251,24.0356,68.6144,24.0356L74.7104,24.0356C76.5091,24.0356,77.9544,25.8769,77.9544,28.1543L77.9544,81.0156z" fill="#37B72C"/></g><path d="M9.58667,27.6187C9.58667,31.004,12.3267,33.7507,15.7147,33.7507L15.7147,33.7507C19.0987,33.7507,21.84,31.004,21.84,27.6187L21.84,27.6187C21.84,24.2347,19.0987,21.4933,15.7147,21.4933L15.7147,21.4933C12.3267,21.4933,9.58667,24.2347,9.58667,27.6187z" fill="url(#def0)"/><path d="M9.58667,27.6187C9.58667,31.004,12.3267,33.7507,15.7147,33.7507L15.7147,33.7507C18.4493,33.7507,20.736,31.9453,21.524,29.4707L21.524,29.4707C20.4533,30.388,19.0813,30.9627,17.56,30.9627L17.56,30.9627C14.176,30.9627,11.4293,28.2173,11.4293,24.832L11.4293,24.832C11.4293,24.184,11.5587,23.5707,11.7453,22.9853L11.7453,22.9853C10.4347,24.108,9.58667,25.756,9.58667,27.6187z" fill="url(#def1)"/><path d="M13.36,22.636C12.488,24.088,13.42,26.2307,15.44,27.448L15.44,27.448C17.4507,28.6533,19.7907,28.468,20.6613,27.028L20.6613,27.028C21.5307,25.5853,20.5907,23.432,18.5773,22.216L18.5773,22.216C17.6827,21.6827,16.7267,21.4213,15.8627,21.4213L15.8627,21.4213C14.7787,21.4213,13.8413,21.8333,13.36,22.636z" fill="url(#def2)"/><path d="M27.5253,19.1787C27.5253,22.564,30.2707,25.3053,33.6547,25.3053L33.6547,25.3053C37.0413,25.3053,39.7813,22.564,39.7813,19.1787L39.7813,19.1787C39.7813,15.7987,37.0413,13.052,33.6547,13.052L33.6547,13.052C30.2707,13.052,27.5253,15.7987,27.5253,19.1787z" fill="url(#def3)"/><path d="M27.5253,19.1787C27.5253,22.564,30.2707,25.3053,33.6547,25.3053L33.6547,25.3053C36.3907,25.3053,38.676,23.504,39.464,21.0333L39.464,21.0333C38.3947,21.9493,37.0213,22.5213,35.5013,22.5213L35.5013,22.5213C32.1173,22.5213,29.3733,19.7827,29.3733,16.3907L29.3733,16.3907C29.3733,15.7427,29.5013,15.1307,29.688,14.5453L29.688,14.5453C28.3747,15.6693,27.5253,17.3173,27.5253,19.1787z" fill="url(#def4)"/><path d="M31.3,14.196C30.4307,15.6413,31.3627,17.796,33.38,19.0067L33.38,19.0067C35.392,20.2187,37.732,20.0253,38.6053,18.5853L38.6053,18.5853C39.4707,17.14,38.5347,14.996,36.5187,13.7747L36.5187,13.7747C35.6227,13.2413,34.664,12.98,33.8,12.98L33.8,12.98C32.7173,12.98,31.7813,13.392,31.3,14.196z" fill="url(#def5)"/><path d="M47.1773,25.42C47.1773,28.8093,49.9173,31.556,53.3093,31.556L53.3093,31.556C56.6907,31.556,59.4347,28.8093,59.4347,25.42L59.4347,25.42C59.4347,22.0387,56.6907,19.2933,53.3093,19.2933L53.3093,19.2933C49.9173,19.2933,47.1773,22.0387,47.1773,25.42z" fill="url(#def6)"/><path d="M47.1773,25.42C47.1773,28.8093,49.9173,31.556,53.3093,31.556L53.3093,31.556C56.04,31.556,58.3293,29.752,59.1187,27.276L59.1187,27.276C58.0467,28.1947,56.6747,28.7693,55.1547,28.7693L55.1547,28.7693C51.768,28.7693,49.024,26.024,49.024,22.636L49.024,22.636C49.024,21.9867,49.152,21.3733,49.3373,20.7867L49.3373,20.7867C48.0267,21.9093,47.1773,23.5587,47.1773,25.42z" fill="url(#def7)"/><path d="M50.9547,20.4373C50.084,21.8933,51.012,24.0347,53.0347,25.2533L53.0347,25.2533C55.0453,26.46,57.3867,26.272,58.2547,24.8253L58.2547,24.8253C59.124,23.3907,58.1893,21.2373,56.1707,20.0213L56.1707,20.0213C55.276,19.4867,54.32,19.2253,53.4573,19.2253L53.4573,19.2253C52.3747,19.2253,51.4373,19.6373,50.9547,20.4373z" fill="url(#def8)"/><path d="M63.5813,6.56934C63.5813,9.956,66.3213,12.6973,69.7053,12.6973L69.7053,12.6973C73.0867,12.6973,75.8333,9.956,75.8333,6.56934L75.8333,6.56934C75.8333,3.188,73.0867,0.442673,69.7053,0.442673L69.7053,0.442673C66.3213,0.442673,63.5813,3.188,63.5813,6.56934z" fill="url(#def9)"/><path d="M63.5813,6.56934C63.5813,9.956,66.3213,12.6973,69.7053,12.6973L69.7053,12.6973C72.4387,12.6973,74.7267,10.8973,75.5173,8.424L75.5173,8.424C74.4453,9.34267,73.072,9.916,71.552,9.916L71.552,9.916C68.168,9.916,65.428,7.172,65.428,3.78534L65.428,3.78534C65.428,3.13467,65.556,2.52133,65.7427,1.93467L65.7427,1.93467C64.4293,3.05733,63.5813,4.70667,63.5813,6.56934z" fill="url(#def10)"/><path d="M67.3453,1.58934C66.476,3.03734,67.408,5.18667,69.432,6.39734L69.432,6.39734C71.4427,7.60934,73.7853,7.416,74.6533,5.97867L74.6533,5.97867C75.5213,4.536,74.5853,2.384,72.568,1.16933L72.568,1.16933C71.6707,0.634674,70.7147,0.373337,69.852,0.373337L69.852,0.373337C68.768,0.373337,67.8333,0.786667,67.3453,1.58934z" fill="url(#def11)"/><path d="M21.6725,60.5339L21.6725,48.2339C21.6725,46.7739,20.2272,45.5765,18.4365,45.5765L12.3432,45.5765C10.5579,45.5765,9.1032,46.7739,9.1032,48.2339L9.1032,65.5912 21.6725,60.5339z" fill="#5FFF52" style="fill-opacity:0.403921568627451"/><path d="M59.5612,48.6315L59.5612,44.6088C59.5612,42.9928,58.1292,41.6821,56.3719,41.6821L50.3852,41.6821C48.5999,41.6821,47.1785,42.9928,47.1785,44.6088L47.1785,53.6901 59.5612,48.6315z" fill="#5FFF52" style="fill-opacity:0.403921568627451"/><path d="M21.6003,82.4609L21.6003,79.4183 9.2456,79.4183 9.2456,82.4609C9.2456,83.9369,10.6763,85.1343,12.4389,85.1343L18.4176,85.1343C20.1763,85.1343,21.6003,83.9369,21.6003,82.4609z" fill="#1C6D16" style="fill-opacity:0.301960784313725"/><path d="M40.7403,81.8099L40.7403,79.4179 28.4576,79.4179 28.4576,81.8099C28.4576,83.6459,29.8749,85.1339,31.6269,85.1339L37.5696,85.1339C39.3229,85.1339,40.7403,83.6459,40.7403,81.8099z" fill="#1C6D16" style="fill-opacity:0.301960784313725"/><path d="M77.9101,81.0052L77.9101,79.4079 65.2141,79.4079 65.2141,81.0052C65.2141,83.2719,66.6808,85.1239,68.4901,85.1239L74.6328,85.1239C76.4528,85.1239,77.9101,83.2719,77.9101,81.0052z" fill="#1C6D16" style="fill-opacity:0.301960784313725"/><path d="M59.7331,82.1967L59.7331,79.418 47.1757,79.418 47.1757,82.1967C47.1757,83.818,48.6224,85.134,50.4197,85.134L56.4864,85.134C58.2744,85.134,59.7331,83.818,59.7331,82.1967z" fill="#1C6D16" style="fill-opacity:0.301960784313725"/><path d="M78.0079,42.6719L78.0079,28.1545C78.0079,25.8772,76.5359,24.0345,74.7199,24.0345L68.5679,24.0345C66.7492,24.0345,65.2799,25.8772,65.2799,28.1545L65.2799,47.7332 78.0079,42.6719z" fill="#5FFF52" style="fill-opacity:0.403921568627451"/><path d="M40.7701,54.5847L40.7701,39.2833C40.7701,37.4527,39.3435,35.9713,37.5875,35.9713L31.6261,35.9713C29.8635,35.9713,28.4421,37.4527,28.4421,39.2833L28.4421,59.6473 40.7701,54.5847z" fill="#5FFF52" style="fill-opacity:0.403921568627451"/></g></svg>